<svg xmlns="http://www.w3.org/2000/svg" width="32" height="32" viewBox="0 0 32 32" fill="none">
  <path d="M14.1142 12.2288C13.5935 11.7081 12.7493 11.7081 12.2286 12.2288C11.7079 12.7495 11.7079 13.5937 12.2286 14.1144L14.1142 16L12.2286 17.8856C11.7079 18.4063 11.7079 19.2506 12.2286 19.7713C12.7493 20.292 13.5935 20.292 14.1142 19.7713L15.9998 17.8856L17.8854 19.7713C18.4061 20.292 19.2503 20.292 19.771 19.7713C20.2917 19.2506 20.2917 18.4063 19.771 17.8856L17.8854 16L19.771 14.1144C20.2917 13.5937 20.2917 12.7495 19.771 12.2288C19.2503 11.7081 18.4061 11.7081 17.8854 12.2288L15.9998 14.1144L14.1142 12.2288Z" fill="black"/>
  <path fill-rule="evenodd" clip-rule="evenodd" d="M15.9998 2.66669C8.63604 2.66669 2.6665 8.63622 2.6665 16C2.6665 23.3638 8.63604 29.3334 15.9998 29.3334C23.3636 29.3334 29.3332 23.3638 29.3332 16C29.3332 8.63622 23.3636 2.66669 15.9998 2.66669ZM5.33317 16C5.33317 10.109 10.1088 5.33335 15.9998 5.33335C21.8909 5.33335 26.6665 10.109 26.6665 16C26.6665 21.8911 21.8909 26.6667 15.9998 26.6667C10.1088 26.6667 5.33317 21.8911 5.33317 16Z" fill="black"/>
</svg>