<svg width="17" height="18" viewBox="0 0 17 18" fill="none" xmlns="http://www.w3.org/2000/svg">
<path d="M14.0421 0.508695C13.684 0.217448 13.1576 0.271635 12.8663 0.629726C12.5751 0.987816 12.6293 1.51421 12.9874 1.80545L13.6699 2.36057H6.46092C2.97139 2.36057 0.142578 5.18938 0.142578 8.6789C0.142578 9.14048 0.51676 9.51466 0.978337 9.51466C1.43991 9.51466 1.8141 9.14048 1.8141 8.6789C1.8141 6.11254 3.89455 4.03208 6.46092 4.03208H13.9651L12.9318 5.03784C12.601 5.35978 12.5939 5.88891 12.9158 6.21967C13.2378 6.55044 13.7669 6.55759 14.0976 6.23564L16.6049 3.79523C16.7758 3.62887 16.8675 3.3974 16.8569 3.15912C16.8463 2.92084 16.7344 2.69845 16.5493 2.54795L14.0421 0.508695Z" fill="white"/>
<path d="M2.95826 16.8491C3.31635 17.1404 3.84275 17.0862 4.13399 16.7281C4.42524 16.37 4.37105 15.8436 4.01296 15.5524L3.33045 14.9972H10.5394C14.0289 14.9972 16.8578 12.1684 16.8578 8.6789C16.8578 8.21733 16.4836 7.84315 16.022 7.84315C15.5604 7.84315 15.1862 8.21733 15.1862 8.6789C15.1862 11.2453 13.1058 13.3257 10.5394 13.3257H3.03524L4.06854 12.32C4.39931 11.998 4.40646 11.4689 4.08452 11.1381C3.76257 10.8074 3.23345 10.8002 2.90268 11.1222L0.395408 13.5626C0.224487 13.7289 0.13279 13.9604 0.143409 14.1987C0.154027 14.437 0.265949 14.6594 0.45099 14.8099L2.95826 16.8491Z" fill="white"/>
</svg>
