<svg xmlns="http://www.w3.org/2000/svg" width="19" height="18" viewBox="0 0 19 18" fill="none">
  <path fill-rule="evenodd" clip-rule="evenodd" d="M13.0579 1.42834C11.4862 1.42834 10.2121 2.70244 10.2121 4.27412C10.2121 4.39565 10.2197 4.5154 10.2345 4.63292C10.1317 4.71554 9.9976 4.82013 9.84132 4.93506C9.46006 5.21546 8.96984 5.54008 8.4895 5.76324C8.07685 5.95494 7.58124 6.12131 7.17531 6.24204C6.97516 6.30157 6.80243 6.34836 6.68032 6.38012C6.61936 6.39598 6.57125 6.40803 6.53893 6.41599L6.50272 6.4248L6.49423 6.42683L6.49252 6.42723C6.47471 6.43141 6.45709 6.43626 6.43993 6.44168C5.93388 5.97915 5.26018 5.69701 4.52058 5.69701C2.9489 5.69701 1.6748 6.97111 1.6748 8.54278C1.6748 10.1145 2.9489 11.3886 4.52058 11.3886C5.26017 11.3886 5.93386 11.1064 6.4399 10.6439C6.46568 10.6521 6.49219 10.6588 6.51937 10.6641L6.52014 10.6642L6.52723 10.6657L6.55978 10.6724C6.58933 10.6786 6.63404 10.6884 6.69131 10.7016C6.80606 10.7281 6.97011 10.7686 7.16295 10.8234C7.55367 10.9344 8.04036 11.0981 8.47108 11.3134C8.90662 11.5312 9.40413 11.861 9.80696 12.1494C9.97378 12.2688 10.12 12.3779 10.2331 12.4641C10.2193 12.5779 10.2121 12.6939 10.2121 12.8114C10.2121 14.3831 11.4862 15.6572 13.0579 15.6572C14.6296 15.6572 15.9037 14.3831 15.9037 12.8114C15.9037 11.2398 14.6296 9.96567 13.0579 9.96567C12.1286 9.96567 11.3034 10.4111 10.784 11.1C10.7365 11.0653 10.6867 11.0293 10.6352 10.9924C10.214 10.6909 9.64429 10.3092 9.10741 10.0408C8.5657 9.76993 7.98522 9.57785 7.55189 9.45471C7.43985 9.42288 7.33617 9.39524 7.24375 9.3717C7.32348 9.10943 7.36636 8.83111 7.36636 8.54278C7.36636 8.25054 7.3223 7.96858 7.24048 7.70319C7.34126 7.67555 7.45625 7.64297 7.58095 7.60588C8.01289 7.47742 8.58444 7.28806 9.08899 7.05367C9.69242 6.77333 10.2694 6.38652 10.6843 6.08134C10.7223 6.05344 10.759 6.02608 10.7946 5.99938C11.3145 6.68046 12.1349 7.1199 13.0579 7.1199C14.6296 7.1199 15.9037 5.8458 15.9037 4.27412C15.9037 2.70244 14.6296 1.42834 13.0579 1.42834ZM11.635 4.27412C11.635 3.48828 12.2721 2.85123 13.0579 2.85123C13.8437 2.85123 14.4808 3.48828 14.4808 4.27412C14.4808 5.05996 13.8437 5.69701 13.0579 5.69701C12.2721 5.69701 11.635 5.05996 11.635 4.27412ZM3.09769 8.54278C3.09769 7.75694 3.73474 7.1199 4.52058 7.1199C5.30642 7.1199 5.94347 7.75694 5.94347 8.54278C5.94347 9.32862 5.30642 9.96567 4.52058 9.96567C3.73474 9.96567 3.09769 9.32862 3.09769 8.54278ZM11.635 12.8114C11.635 12.0256 12.2721 11.3886 13.0579 11.3886C13.8437 11.3886 14.4808 12.0256 14.4808 12.8114C14.4808 13.5973 13.8437 14.2343 13.0579 14.2343C12.2721 14.2343 11.635 13.5973 11.635 12.8114Z" fill="white"/>
</svg>